<?xml version="1.0" encoding="utf-8"?>
<!-- Generator: Adobe Illustrator 26.1.0, SVG Export Plug-In . SVG Version: 6.00 Build 0)  -->
<svg version="1.1" id="Layer_1" xmlns="http://www.w3.org/2000/svg" xmlns:xlink="http://www.w3.org/1999/xlink" x="0px" y="0px"
	 viewBox="0 0 235.9 76.1" style="enable-background:new 0 0 235.9 76.1;" xml:space="preserve">
<style type="text/css">
	.st0{enable-background:new    ;}
	.st1{fill:#404040;}
	.st2{fill:#FF0000;}
	.st3{fill:#0080FF;}
	.st4{fill:#FFDD00;}
</style>
<g id="Group_13" transform="translate(-190.202 -217)">
	<g class="st0">
		<path class="st1" d="M349.1,272.5c1.3,0,2.4,0.2,3.4,0.6s1.7,0.9,2.2,1.7c0.5,0.7,0.8,1.6,0.8,2.6c0,1.5-0.5,2.8-1.6,3.9
			s-2.6,2.4-4.6,3.8s-3.3,2.4-4,3.1h8.2c0.7,0,1.2-0.1,1.5-0.2s0.6-0.3,0.7-0.5s0.2-0.6,0.3-1h0.8c0,3,0,5.1,0.1,6.4
			c-0.6-0.1-2.5-0.2-5.7-0.2h-11.1V292c0.4-0.4,1.4-1.4,3.3-3c1.8-1.7,3.3-3.3,4.4-5.1c1.1-1.7,1.6-3.5,1.6-5.3
			c0-2.6-1.2-3.9-3.5-3.9c-1.1,0-2,0.2-2.8,0.7s-1.6,1.2-2.3,2.2l-0.6-0.4C342,274,345,272.5,349.1,272.5z"/>
		<path class="st1" d="M392.5,272.5c1.3,0,2.4,0.2,3.4,0.6s1.7,0.9,2.2,1.7c0.5,0.7,0.8,1.6,0.8,2.6c0,1.5-0.5,2.8-1.6,3.9
			s-2.6,2.4-4.6,3.8s-3.3,2.4-4,3.1h8.2c0.7,0,1.2-0.1,1.5-0.2s0.6-0.3,0.7-0.5s0.2-0.6,0.3-1h0.8c0,3,0,5.1,0.1,6.4
			c-0.6-0.1-2.5-0.2-5.7-0.2h-11.1V292c0.4-0.4,1.4-1.4,3.3-3c1.8-1.7,3.3-3.3,4.4-5.1c1.1-1.7,1.6-3.5,1.6-5.3
			c0-2.6-1.2-3.9-3.5-3.9c-1.1,0-2,0.2-2.8,0.7s-1.6,1.2-2.3,2.2l-0.6-0.4C385.4,274,388.4,272.5,392.5,272.5z"/>
		<path class="st1" d="M415.3,264.6c1.8,0,3.3,0.3,4.7,0.8c1.4,0.6,2.4,1.2,3,2.4c0.7,1,1.1,2.2,1.1,3.6c0,2.1-0.7,3.9-2.2,5.4
			c-1.5,1.5-3.6,3.3-6.4,5.3c-2.8,1.9-4.6,3.3-5.5,4.3h11.4c1,0,1.7-0.1,2.1-0.3c0.4-0.1,0.8-0.4,1-0.7c0.1-0.3,0.3-0.8,0.4-1.4h1.1
			c0,4.2,0,7.1,0.1,8.9c-0.8-0.1-3.5-0.3-7.9-0.3h-15.4v-1c0.6-0.6,1.9-1.9,4.6-4.2c2.5-2.4,4.6-4.6,6.1-7.1
			c1.5-2.4,2.2-4.9,2.2-7.3c0-3.6-1.7-5.4-4.9-5.4c-1.5,0-2.8,0.3-3.9,1c-1.1,0.7-2.2,1.7-3.2,3l-0.8-0.6
			C405.5,266.7,409.6,264.6,415.3,264.6z"/>
		<path class="st1" d="M376.3,273.7c1.6,0.8,2.8,2,3.7,3.5c0.9,1.5,1.3,3.3,1.3,5.2c0,2-0.5,3.8-1.4,5.5c-0.9,1.6-2.2,2.9-3.8,3.8
			s-3.5,1.4-5.6,1.4c-2,0-3.8-0.4-5.3-1.2c-1.6-0.8-2.8-2-3.7-3.5c-0.9-1.5-1.3-3.3-1.3-5.3s0.4-3.8,1.3-5.4s2.2-2.9,3.8-3.8
			s3.5-1.4,5.6-1.4C372.9,272.5,374.7,272.9,376.3,273.7z M368.2,274.3c-0.7,0.8-1.3,1.9-1.7,3.4s-0.6,3.2-0.6,5.3
			c0,2.2,0.2,4,0.7,5.4c0.4,1.4,1,2.5,1.8,3.1c0.7,0.7,1.6,1,2.5,1s1.7-0.4,2.4-1.2c0.7-0.8,1.3-1.9,1.7-3.4
			c0.4-1.5,0.6-3.3,0.6-5.3c0-2.2-0.2-4-0.7-5.4c-0.4-1.4-1-2.5-1.8-3.1c-0.7-0.7-1.6-1-2.5-1C369.7,273.1,368.9,273.5,368.2,274.3z
			"/>
	</g>
	<rect id="Rectangle_3" x="192.6" y="274.4" class="st2" width="143" height="3"/>
	<path id="Path_18" class="st3" d="M409.5,249.4h16.5v3.2h-16.5V249.4z"/>
	<g class="st0">
		<path class="st1" d="M192.9,218.7h9.2v1.7h-7.4v4.1h6.6v1.7h-6.6v4.2h7.6v1.7h-9.5L192.9,218.7L192.9,218.7z"/>
		<path class="st1" d="M205.2,217.9h1.8V232h-1.8V217.9z"/>
		<path class="st1" d="M218.1,223.3c0.8,0.9,1.2,2.2,1.2,3.8c0,0.3,0,0.4,0,0.6h-7.9c0.1,0.9,0.5,1.6,1.1,2.1s1.4,0.8,2.3,0.8
			c0.6,0,1.1-0.1,1.7-0.3c0.5-0.2,1-0.5,1.3-0.9l1,1c-0.5,0.5-1.1,0.9-1.8,1.2s-1.5,0.4-2.3,0.4c-1,0-1.9-0.2-2.6-0.6
			c-0.8-0.4-1.4-1-1.8-1.8s-0.6-1.7-0.6-2.6c0-1,0.2-1.9,0.6-2.6s1-1.4,1.8-1.8c0.8-0.4,1.6-0.7,2.6-0.7
			C216.1,221.9,217.3,222.4,218.1,223.3z M217.7,226.3c-0.1-0.9-0.4-1.6-0.9-2.2c-0.6-0.5-1.3-0.8-2.2-0.8s-1.6,0.3-2.2,0.8
			c-0.6,0.5-0.9,1.2-1.1,2.1L217.7,226.3L217.7,226.3z"/>
		<path class="st1" d="M225.9,223.5c-0.7,0-1.2,0.1-1.8,0.4c-0.5,0.3-0.9,0.7-1.2,1.2s-0.4,1.1-0.4,1.8s0.1,1.3,0.4,1.8
			s0.7,0.9,1.2,1.2s1.1,0.4,1.7,0.4s1.2-0.1,1.7-0.3s0.9-0.5,1.3-0.9l1,1c-0.5,0.6-1,1-1.7,1.3s-1.5,0.5-2.4,0.5
			c-1,0-1.8-0.2-2.6-0.6c-0.8-0.4-1.4-1-1.8-1.8c-0.4-0.8-0.6-1.6-0.6-2.6s0.2-1.9,0.6-2.6c0.4-0.8,1-1.4,1.8-1.8
			c0.8-0.4,1.6-0.6,2.6-0.6c0.8,0,1.6,0.1,2.3,0.4c0.7,0.3,1.2,0.6,1.7,1.1l-1,1.2C228,223.9,227,223.5,225.9,223.5z"/>
		<path class="st1" d="M236.1,223.5c-0.7,0-1.2,0.1-1.8,0.4c-0.5,0.3-0.9,0.7-1.2,1.2s-0.4,1.1-0.4,1.8s0.1,1.3,0.4,1.8
			s0.7,0.9,1.2,1.2s1.1,0.4,1.7,0.4s1.2-0.1,1.7-0.3s0.9-0.5,1.3-0.9l1,1c-0.5,0.6-1,1-1.7,1.3s-1.5,0.5-2.4,0.5
			c-1,0-1.8-0.2-2.6-0.6c-0.8-0.4-1.4-1-1.8-1.8c-0.4-0.8-0.6-1.6-0.6-2.6s0.2-1.9,0.6-2.6c0.4-0.8,1-1.4,1.8-1.8
			c0.8-0.4,1.6-0.6,2.6-0.6c0.8,0,1.6,0.1,2.3,0.4c0.7,0.3,1.2,0.6,1.7,1.1l-1,1.2C238.2,223.9,237.3,223.5,236.1,223.5z"/>
		<path class="st1" d="M244.3,218.3c0.2,0.2,0.3,0.5,0.3,0.8s-0.1,0.6-0.3,0.8s-0.5,0.3-0.8,0.3s-0.6-0.1-0.8-0.3s-0.3-0.5-0.3-0.8
			s0.1-0.6,0.3-0.8s0.5-0.3,0.8-0.3C243.8,217.9,244.1,218,244.3,218.3z M242.6,221.9h1.8V232h-1.8V221.9z"/>
		<path class="st1" d="M254.7,222.5c0.8,0.4,1.4,1,1.8,1.8s0.7,1.6,0.7,2.6s-0.2,1.9-0.7,2.6s-1,1.4-1.8,1.8
			c-0.8,0.4-1.7,0.6-2.7,0.6s-1.9-0.2-2.7-0.6c-0.8-0.4-1.4-1-1.8-1.8c-0.4-0.8-0.7-1.6-0.7-2.7c0-1,0.2-1.9,0.7-2.6
			c0.4-0.8,1-1.4,1.8-1.8c0.8-0.4,1.7-0.6,2.7-0.6C253,221.9,253.9,222.1,254.7,222.5z M250.3,223.9c-0.5,0.3-0.9,0.7-1.2,1.3
			c-0.3,0.5-0.4,1.1-0.4,1.8s0.1,1.3,0.4,1.9c0.3,0.5,0.7,1,1.2,1.3s1.1,0.4,1.8,0.4c0.6,0,1.2-0.1,1.7-0.4c0.5-0.3,0.9-0.7,1.2-1.3
			c0.3-0.5,0.4-1.2,0.4-1.9s-0.1-1.3-0.4-1.8c-0.3-0.5-0.7-1-1.2-1.3s-1.1-0.5-1.7-0.5C251.4,223.4,250.8,223.6,250.3,223.9z"/>
		<path class="st1" d="M268,222.9c0.7,0.7,1,1.6,1,2.9v6.2h-1.8v-5.7c0-0.8-0.2-1.5-0.7-2s-1.1-0.7-2-0.7s-1.6,0.3-2.2,0.9
			c-0.6,0.6-0.9,1.3-1,2.2v5.4h-1.8V222h1.8v2.1c0.7-1.4,1.9-2.2,3.8-2.2C266.4,221.9,267.3,222.2,268,222.9z"/>
		<path class="st1" d="M279.7,223.3c0.8,0.9,1.2,2.2,1.2,3.8c0,0.3,0,0.4,0,0.6H273c0.1,0.9,0.5,1.6,1.1,2.1s1.4,0.8,2.3,0.8
			c0.6,0,1.1-0.1,1.7-0.3c0.5-0.2,1-0.5,1.3-0.9l1,1c-0.5,0.5-1.1,0.9-1.8,1.2s-1.5,0.4-2.3,0.4c-1,0-1.9-0.2-2.6-0.6
			c-0.8-0.4-1.4-1-1.8-1.8s-0.6-1.7-0.6-2.6c0-1,0.2-1.9,0.6-2.6s1-1.4,1.8-1.8c0.8-0.4,1.6-0.7,2.6-0.7
			C277.8,221.9,278.9,222.4,279.7,223.3z M279.3,226.3c-0.1-0.9-0.4-1.6-0.9-2.2c-0.6-0.5-1.3-0.8-2.2-0.8c-0.9,0-1.6,0.3-2.2,0.8
			s-0.9,1.2-1.1,2.1L279.3,226.3L279.3,226.3z"/>
		<path class="st1" d="M287.5,223.6c-0.5-0.2-1-0.2-1.4-0.2c-0.5,0-1,0.1-1.3,0.3s-0.5,0.5-0.5,0.9s0.2,0.7,0.5,0.9
			c0.4,0.2,0.9,0.4,1.6,0.6c0.7,0.2,1.3,0.4,1.7,0.6c0.4,0.2,0.8,0.5,1.1,0.9c0.3,0.4,0.5,0.9,0.5,1.6c0,0.9-0.4,1.7-1.1,2.2
			s-1.6,0.7-2.7,0.7c-0.7,0-1.5-0.1-2.2-0.4c-0.7-0.2-1.3-0.6-1.8-1l0.7-1.3c0.4,0.4,0.9,0.7,1.5,0.9s1.2,0.3,1.8,0.3
			s1.1-0.1,1.4-0.3c0.4-0.2,0.5-0.5,0.5-1s-0.2-0.8-0.6-1s-0.9-0.5-1.7-0.7c-0.7-0.2-1.2-0.4-1.6-0.6c-0.4-0.2-0.8-0.5-1.1-0.9
			c-0.3-0.4-0.4-0.9-0.4-1.5c0-0.9,0.3-1.6,1-2.1s1.5-0.7,2.6-0.7c0.6,0,1.2,0.1,1.8,0.3s1.1,0.4,1.5,0.7l-0.6,1.3
			C288.4,223.9,288,223.7,287.5,223.6z"/>
	</g>
	<g class="st0">
		<path class="st1" d="M198.5,260c0,0.8,0.1,1.4,0.3,1.8s0.5,0.6,0.9,0.8c0.4,0.1,1.2,0.2,2.1,0.2v0.7c-2.5-0.1-4.4-0.1-5.7-0.1
			c-0.6,0-2.2,0-4.9,0.1v-0.6c0.7,0,1.2-0.1,1.5-0.2s0.5-0.4,0.6-0.7c0.1-0.4,0.2-0.9,0.2-1.7v-15.4c0-0.8-0.1-1.3-0.2-1.7
			c-0.1-0.4-0.3-0.6-0.6-0.7c-0.3-0.1-0.8-0.2-1.5-0.2v-0.6c1,0.1,2.6,0.1,4.7,0.1c0.8,0,1.7,0,2.8,0c1,0,1.7,0,2.1,0
			c1.9,0,3.5,0.3,4.7,0.8c1.3,0.5,2.3,1.2,2.9,2.1c0.6,0.9,1,2,1,3.2c0,1.1-0.3,2.2-0.9,3.3s-1.6,1.9-2.9,2.6c-1.4,0.7-3.2,1-5.5,1
			h-1.6L198.5,260L198.5,260z M203.3,252.4c0.6-1.1,1-2.5,1-4.4c0-2-0.3-3.5-0.9-4.4c-0.6-0.9-1.6-1.4-3-1.4c-0.6,0-1,0.1-1.2,0.2
			c-0.3,0.1-0.4,0.4-0.5,0.8c-0.1,0.4-0.1,0.9-0.1,1.7v9.2h1.3C201.5,254,202.7,253.5,203.3,252.4z"/>
		<path class="st1" d="M219,247.9c0.7-0.5,1.6-0.8,2.5-0.8c0.6,0,1.2,0.1,1.6,0.4s0.7,0.6,0.9,1.1c0.2,0.4,0.3,0.9,0.3,1.4
			c0,0.8-0.2,1.4-0.7,1.9c-0.4,0.5-1,0.7-1.8,0.7c-0.7,0-1.3-0.2-1.7-0.5c-0.4-0.4-0.6-0.8-0.6-1.4c0-1,0.5-1.8,1.4-2.4
			c-0.1,0-0.3,0-0.4,0c-0.1,0-0.3,0-0.5,0.1c-0.5,0.1-1,0.3-1.4,0.7s-0.8,0.9-1,1.5s-0.4,1.2-0.4,1.7v8.2c0,1,0.2,1.6,0.7,2
			s1.2,0.6,2.2,0.6v0.7c-2.6-0.1-4.2-0.1-4.9-0.1s-2.1,0-4.4,0.1v-0.7c0.5,0,0.9-0.1,1.2-0.2s0.5-0.4,0.6-0.7
			c0.1-0.3,0.2-0.8,0.2-1.3v-9.8c0-1-0.1-1.7-0.4-2.1c-0.3-0.4-0.8-0.6-1.5-0.6v-0.7c0.7,0.1,1.3,0.1,1.9,0.1c1.8,0,3.3-0.1,4.5-0.4
			v2.9C217.6,249.1,218.2,248.4,219,247.9z"/>
		<path class="st1" d="M229.9,255.4c0,1.4,0.2,2.5,0.6,3.4c0.4,0.9,0.9,1.6,1.5,2s1.3,0.6,2,0.6c1.7,0,3.1-0.8,4.1-2.5l0.5,0.2
			c-0.3,0.8-0.7,1.6-1.2,2.4c-0.6,0.7-1.2,1.3-2.1,1.8c-0.8,0.5-1.8,0.7-2.9,0.7c-1.4,0-2.7-0.3-3.7-0.9c-1.1-0.6-1.9-1.5-2.5-2.8
			c-0.6-1.2-0.9-2.8-0.9-4.6c0-1.9,0.3-3.5,1-4.7c0.6-1.3,1.5-2.3,2.7-2.9c1.1-0.6,2.5-1,4-1c3.9,0,5.8,2.3,5.8,6.9H230
			C229.9,254.2,229.9,254.7,229.9,255.4z M234.3,249.3c-0.4-1.1-0.9-1.6-1.6-1.6c-0.7,0-1.3,0.5-1.8,1.4s-0.8,2.3-0.9,4.3h4.9
			C234.8,251.7,234.6,250.4,234.3,249.3z"/>
		<path class="st1" d="M243.2,261.7c0.7,1,1.6,1.5,2.9,1.5c0.6,0,1.1-0.2,1.6-0.6c0.4-0.4,0.6-0.9,0.6-1.7c0-0.6-0.1-1.1-0.4-1.5
			c-0.3-0.5-0.6-0.9-1-1.2s-1-0.8-1.8-1.5c-1-0.8-1.7-1.4-2.2-1.8s-0.9-1-1.2-1.6s-0.5-1.3-0.5-2.1c0-0.9,0.2-1.7,0.7-2.3
			s1.1-1.1,2-1.5s1.7-0.5,2.7-0.5c0.8,0,1.5,0.1,2.2,0.3s1.2,0.4,1.5,0.7c0.2,0.1,0.4,0.2,0.5,0.2c0.4,0,0.6-0.4,0.7-1.1h0.7
			c-0.1,1-0.1,2.9-0.1,5.4h-0.7c-0.2-1.4-0.6-2.5-1.2-3.4c-0.6-0.9-1.5-1.4-2.7-1.4c-0.6,0-1.1,0.2-1.5,0.5
			c-0.4,0.4-0.6,0.8-0.6,1.5s0.2,1.3,0.7,1.8s1,1,1.7,1.5c0.7,0.5,1.1,0.8,1.4,1c0.8,0.6,1.5,1.2,2,1.7s0.9,1,1.2,1.6
			s0.5,1.3,0.5,2.1c0,0.9-0.3,1.7-0.8,2.4c-0.5,0.7-1.2,1.2-2.1,1.6c-0.9,0.4-1.9,0.6-3,0.6s-2.1-0.2-2.9-0.7
			c-0.6-0.3-1.1-0.5-1.5-0.7c-0.1,0-0.1,0-0.2,0c-0.3,0-0.6,0.4-0.7,1.1H241c0.1-1.2,0.1-3.2,0.1-6.2h0.7
			C242.1,259.3,242.5,260.7,243.2,261.7z"/>
		<path class="st1" d="M261.4,262c0.1,0.3,0.3,0.6,0.6,0.7c0.3,0.1,0.7,0.2,1.2,0.2v0.7c-2.1-0.1-3.4-0.1-4.1-0.1s-2.1,0-4.3,0.1
			v-0.7c0.5,0,0.9-0.1,1.2-0.2c0.3-0.1,0.5-0.4,0.6-0.7c0.1-0.3,0.2-0.8,0.2-1.3v-9.8c0-1-0.1-1.7-0.4-2.1c-0.3-0.4-0.8-0.6-1.5-0.6
			v-0.7c0.7,0.1,1.3,0.1,1.9,0.1c1.8,0,3.3-0.1,4.5-0.4v13.5C261.2,261.2,261.3,261.6,261.4,262z M260.9,240.1
			c0.5,0.4,0.8,1,0.8,1.7s-0.3,1.3-0.8,1.8c-0.5,0.4-1.2,0.6-2.1,0.6s-1.6-0.2-2.1-0.6c-0.5-0.4-0.8-1-0.8-1.8
			c0-0.7,0.3-1.3,0.8-1.7s1.2-0.6,2.1-0.6C259.7,239.5,260.3,239.7,260.9,240.1z"/>
		<path class="st1" d="M280.2,262.2c0.3,0.4,0.8,0.6,1.6,0.6v0.7c-0.7-0.1-1.3-0.1-1.9-0.1c-1.8,0-3.3,0.1-4.5,0.4v-2.7
			c-0.7,1.9-2,2.8-4,2.8c-1.3,0-2.4-0.3-3.3-0.9c-1-0.6-1.7-1.6-2.2-2.8c-0.5-1.3-0.8-2.9-0.8-4.8c0-1.8,0.3-3.4,0.9-4.6
			c0.6-1.3,1.4-2.2,2.5-2.8c1-0.6,2.2-0.9,3.6-0.9c1.5,0,2.7,0.4,3.4,1.2V243c0-1-0.1-1.7-0.4-2.1c-0.3-0.4-0.8-0.6-1.5-0.6v-0.7
			c0.7,0.1,1.3,0.1,1.9,0.1c1.8,0,3.3-0.1,4.5-0.4v20.9C279.8,261,280,261.7,280.2,262.2z M273.1,247.9c-1.1,0-1.9,0.6-2.5,1.9
			c-0.6,1.3-0.9,3.1-0.9,5.6c0,4.8,0.9,7.1,2.9,7.1c0.4,0,0.9-0.1,1.3-0.3c0.4-0.2,0.7-0.5,1-1c0.3-0.4,0.4-0.9,0.5-1.5V249
			C274.8,248.3,274.1,247.9,273.1,247.9z"/>
		<path class="st1" d="M288.2,255.4c0,1.4,0.2,2.5,0.6,3.4s0.9,1.6,1.5,2s1.3,0.6,2,0.6c1.7,0,3.1-0.8,4.1-2.5l0.5,0.2
			c-0.3,0.8-0.7,1.6-1.2,2.4c-0.6,0.7-1.2,1.3-2.1,1.8c-0.8,0.5-1.8,0.7-2.9,0.7c-1.4,0-2.7-0.3-3.7-0.9c-1.1-0.6-1.9-1.5-2.5-2.8
			c-0.6-1.2-0.9-2.8-0.9-4.6c0-1.9,0.3-3.5,1-4.7c0.6-1.3,1.5-2.3,2.7-2.9c1.1-0.6,2.5-1,4-1c3.9,0,5.8,2.3,5.8,6.9h-8.7
			C288.2,254.2,288.2,254.7,288.2,255.4z M292.5,249.3c-0.4-1.1-0.9-1.6-1.6-1.6s-1.3,0.5-1.8,1.4s-0.8,2.3-0.9,4.3h4.9
			C293,251.7,292.9,250.4,292.5,249.3z"/>
		<path class="st1" d="M310.1,247c0.8,0,1.5,0.1,2.1,0.3c0.5,0.2,1,0.5,1.3,0.9s0.6,0.9,0.7,1.5c0.2,0.6,0.2,1.5,0.2,2.5v8.3
			c0,0.6,0.1,1,0.2,1.3s0.3,0.6,0.6,0.7c0.3,0.1,0.7,0.2,1.2,0.2v0.7c-2.1-0.1-3.4-0.1-4.1-0.1c-0.6,0-2,0-4,0.1v-0.7
			c0.4,0,0.8-0.1,1-0.2s0.4-0.4,0.5-0.7c0.1-0.3,0.2-0.8,0.2-1.3V251c0-0.8-0.1-1.5-0.4-1.9s-0.8-0.7-1.5-0.7
			c-0.6,0-1.1,0.2-1.6,0.5s-0.8,0.7-1.1,1.3c-0.3,0.6-0.4,1.2-0.4,1.8v8.6c0,0.6,0.1,1,0.2,1.3s0.3,0.6,0.5,0.7s0.6,0.2,1,0.2v0.7
			c-1.9-0.1-3.2-0.1-3.8-0.1c-0.6,0-2.1,0-4.3,0.1v-0.7c0.5,0,0.9-0.1,1.2-0.2c0.3-0.1,0.5-0.4,0.6-0.7c0.1-0.3,0.2-0.8,0.2-1.3
			v-9.8c0-1-0.1-1.7-0.4-2.1c-0.3-0.4-0.8-0.6-1.5-0.6v-0.7c0.7,0.1,1.3,0.1,1.9,0.1c1.8,0,3.3-0.1,4.5-0.4v2.8
			C305.9,248,307.6,247,310.1,247z"/>
		<path class="st1" d="M330.1,261.4c-0.5,0.7-1.2,1.3-2,1.8s-1.8,0.7-2.9,0.7c-1.4,0-2.6-0.3-3.7-0.9s-1.9-1.5-2.6-2.8
			c-0.6-1.3-0.9-2.8-0.9-4.7c0-1.8,0.3-3.4,1-4.7s1.6-2.2,2.7-2.9c1.2-0.7,2.5-1,4-1c0.8,0,1.5,0.1,2.2,0.2c0.7,0.2,1.2,0.4,1.7,0.7
			s1,0.7,1.2,1.2c0.3,0.5,0.4,1.1,0.4,1.7c0,0.7-0.2,1.3-0.7,1.8s-1,0.7-1.8,0.7c-0.7,0-1.3-0.2-1.7-0.6c-0.4-0.4-0.6-1-0.6-1.7
			c0-0.6,0.2-1.2,0.6-1.6s0.9-0.8,1.5-0.9c-0.2-0.2-0.4-0.4-0.7-0.5c-0.3-0.1-0.7-0.2-1.1-0.2c-0.8,0-1.6,0.3-2.1,0.9
			c-0.6,0.6-1,1.5-1.3,2.6s-0.5,2.4-0.5,3.8c0,1.5,0.2,2.7,0.6,3.7c0.4,0.9,0.9,1.6,1.5,2s1.3,0.6,2,0.6s1.4-0.2,2.1-0.6
			s1.4-1,1.9-2l0.5,0.2C331,259.9,330.7,260.7,330.1,261.4z"/>
		<path class="st1" d="M339.6,262c0.1,0.3,0.3,0.6,0.6,0.7c0.3,0.1,0.7,0.2,1.2,0.2v0.7c-2.1-0.1-3.4-0.1-4.1-0.1s-2.1,0-4.3,0.1
			v-0.7c0.5,0,0.9-0.1,1.2-0.2c0.3-0.1,0.5-0.4,0.6-0.7c0.1-0.3,0.2-0.8,0.2-1.3v-9.8c0-1-0.1-1.7-0.4-2.1s-0.8-0.6-1.5-0.6v-0.7
			c0.7,0.1,1.3,0.1,1.9,0.1c1.8,0,3.3-0.1,4.5-0.4v13.5C339.4,261.2,339.4,261.6,339.6,262z M339,240.1c0.5,0.4,0.8,1,0.8,1.7
			s-0.3,1.3-0.8,1.8c-0.5,0.4-1.2,0.6-2.1,0.6s-1.6-0.2-2.1-0.6s-0.8-1-0.8-1.8c0-0.7,0.3-1.3,0.8-1.7s1.2-0.6,2.1-0.6
			S338.5,239.7,339,240.1z"/>
		<path class="st1" d="M350.7,248.4c-0.4-0.5-1-0.7-1.9-0.7c-0.4,0-0.8,0.1-1.2,0.2c-0.4,0.1-0.7,0.3-1,0.6c0.6,0.2,1,0.5,1.3,0.9
			s0.5,0.9,0.5,1.5c0,0.4-0.1,0.8-0.3,1.1c-0.2,0.3-0.5,0.6-0.9,0.8s-0.8,0.3-1.3,0.3c-0.7,0-1.2-0.2-1.6-0.7s-0.6-1-0.6-1.7
			c0-1.1,0.6-1.9,1.7-2.6c1.3-0.7,2.8-1,4.7-1c2.1,0,3.6,0.5,4.5,1.4c0.4,0.4,0.7,1,0.9,1.6c0.2,0.6,0.2,1.5,0.2,2.7v8.4
			c0,0.5,0,0.9,0.1,1.1s0.3,0.3,0.5,0.3c0.3,0,0.7-0.2,1.2-0.5l0.3,0.5c-0.5,0.4-1,0.7-1.5,0.9c-0.6,0.2-1.2,0.3-2,0.3
			c-1,0-1.8-0.2-2.3-0.7s-0.7-1.1-0.7-1.8c-0.5,0.8-1.2,1.5-2,1.9s-1.7,0.6-2.6,0.6c-1.2,0-2.1-0.3-2.8-0.9
			c-0.7-0.6-1.1-1.5-1.1-2.6s0.4-2,1.1-2.7s1.8-1.3,3.3-1.9c0.2-0.1,0.7-0.3,1.6-0.6c0.9-0.3,1.5-0.7,1.9-1s0.6-0.7,0.6-1.2v-2.4
			C351.3,249.5,351.1,248.9,350.7,248.4z M350.6,254.8c-0.3,0.2-0.7,0.5-1.3,0.9c-0.7,0.5-1.2,1-1.5,1.5c-0.4,0.6-0.6,1.3-0.6,2.1
			c0,0.8,0.2,1.4,0.5,1.8c0.4,0.4,0.8,0.6,1.4,0.6c0.8,0,1.5-0.4,2.1-1.3V254C351.1,254.3,350.9,254.5,350.6,254.8z"/>
		<path class="st1" d="M365.3,262c0.1,0.3,0.3,0.6,0.6,0.7c0.3,0.1,0.7,0.2,1.2,0.2v0.7c-2.1-0.1-3.5-0.1-4.1-0.1
			c-0.7,0-2.1,0-4.3,0.1v-0.7c0.5,0,0.9-0.1,1.2-0.2c0.3-0.1,0.5-0.4,0.6-0.7c0.1-0.3,0.2-0.8,0.2-1.3V243c0-1-0.1-1.7-0.4-2.1
			c-0.3-0.4-0.8-0.6-1.5-0.6v-0.7c0.7,0.1,1.3,0.1,1.9,0.1c1.8,0,3.3-0.1,4.5-0.4v21.4C365.1,261.2,365.1,261.6,365.3,262z"/>
		<path class="st1" d="M373.2,255.4c0,1.4,0.2,2.5,0.6,3.4s0.9,1.6,1.5,2s1.3,0.6,2,0.6c1.7,0,3.1-0.8,4.1-2.5l0.5,0.2
			c-0.3,0.8-0.7,1.6-1.2,2.4c-0.6,0.7-1.2,1.3-2.1,1.8s-1.8,0.7-2.9,0.7c-1.4,0-2.7-0.3-3.7-0.9c-1.1-0.6-1.9-1.5-2.5-2.8
			s-0.9-2.8-0.9-4.6c0-1.9,0.3-3.5,1-4.7c0.6-1.3,1.5-2.3,2.7-2.9c1.1-0.6,2.5-1,4-1c3.9,0,5.8,2.3,5.8,6.9h-8.7
			C373.2,254.2,373.2,254.7,373.2,255.4z M377.5,249.3c-0.4-1.1-0.9-1.6-1.6-1.6s-1.3,0.5-1.8,1.4s-0.8,2.3-0.9,4.3h4.9
			C378,251.7,377.9,250.4,377.5,249.3z"/>
		<path class="st1" d="M386.5,261.7c0.7,1,1.6,1.5,2.9,1.5c0.6,0,1.1-0.2,1.6-0.6c0.4-0.4,0.6-0.9,0.6-1.7c0-0.6-0.1-1.1-0.4-1.5
			c-0.3-0.5-0.6-0.9-1-1.2s-1-0.8-1.8-1.5c-1-0.8-1.7-1.4-2.2-1.8s-0.9-1-1.2-1.6c-0.3-0.6-0.5-1.3-0.5-2.1c0-0.9,0.2-1.7,0.7-2.3
			s1.1-1.1,2-1.5s1.7-0.5,2.7-0.5c0.8,0,1.5,0.1,2.2,0.3s1.2,0.4,1.5,0.7c0.2,0.1,0.4,0.2,0.5,0.2c0.4,0,0.6-0.4,0.7-1.1h0.7
			c-0.1,1-0.1,2.9-0.1,5.4h-0.7c-0.2-1.4-0.6-2.5-1.2-3.4s-1.5-1.4-2.7-1.4c-0.6,0-1.1,0.2-1.5,0.5c-0.4,0.4-0.6,0.8-0.6,1.5
			s0.2,1.3,0.7,1.8s1,1,1.7,1.5c0.7,0.5,1.1,0.8,1.4,1c0.8,0.6,1.5,1.2,2,1.7s0.9,1,1.2,1.6c0.3,0.6,0.5,1.3,0.5,2.1
			c0,0.9-0.3,1.7-0.8,2.4c-0.5,0.7-1.2,1.2-2.1,1.6s-1.9,0.6-3,0.6s-2.1-0.2-2.9-0.7c-0.6-0.3-1.1-0.5-1.5-0.7c-0.1,0-0.1,0-0.2,0
			c-0.3,0-0.6,0.4-0.7,1.1h-0.7c0.1-1.2,0.1-3.2,0.1-6.2h0.7C385.4,259.3,385.8,260.7,386.5,261.7z"/>
	</g>
	<rect id="Rectangle_1" x="299" y="228.3" class="st4" width="127.1" height="3"/>
</g>
</svg>
